<svg width="20" height="20" viewBox="0 0 20 20" fill="none" xmlns="http://www.w3.org/2000/svg">
<path d="M18.572 1.42801H1.42946C0.637354 1.42801 0 2.06683 0 2.85894V17.144C0 17.9317 0.637354 18.572 1.42946 18.572H18.572C19.3568 18.572 20 17.9317 20 17.144V2.85894C20.0007 2.06683 19.3575 1.42801 18.572 1.42801ZM6.82973 2.50102C7.22359 2.50102 7.54336 2.8208 7.54336 3.21612C7.54336 3.60997 7.22359 3.92975 6.82973 3.92975C6.43441 3.92975 6.11464 3.60997 6.11464 3.21612C6.11537 2.82007 6.43441 2.50102 6.82973 2.50102ZM4.64263 2.50102C5.03649 2.50102 5.35773 2.8208 5.35773 3.21612C5.35773 3.60997 5.03649 3.92975 4.64263 3.92975C4.24731 3.92975 3.92754 3.60997 3.92754 3.21612C3.92754 2.82007 4.24731 2.50102 4.64263 2.50102ZM2.49807 2.50102C2.89486 2.50102 3.21317 2.8208 3.21317 3.21612C3.21317 3.60997 2.89486 3.92975 2.49807 3.92975C2.10569 3.92975 1.78591 3.60997 1.78591 3.21612C1.78664 2.82007 2.10569 2.50102 2.49807 2.50102ZM18.572 17.144H1.42946V5.01523H18.572C18.572 5.01523 18.572 17.144 18.572 17.144Z" fill="white"/>
<path d="M10.8526 11.4166L4.28619 14.786V13.8091L9.86176 11.036V11.0074L4.28619 8.23353V7.25659L10.8526 10.6098V11.4166Z" fill="white"/>
<path d="M15.7116 10.5131V11.4167H12.2175V10.5131H15.7116Z" fill="white"/>
</svg>
