<svg width="40" height="40" viewBox="0 0 40 40" fill="none" xmlns="http://www.w3.org/2000/svg">
<g clip-path="url(#clip0)">
<path d="M5.96663 35.3267H29.7316L28.5966 31.6517L31.3116 33.9817L33.8 36.2117L38.3333 40V4.125C38.22 1.895 36.3 0 33.92 0L5.97496 0.005C3.59663 0.005 1.66663 1.90333 1.66663 4.13333V31.2C1.66663 33.5517 3.59329 35.3267 5.96663 35.3267V35.3267ZM23.5466 9.47167L23.4916 9.49167L23.5116 9.47167H23.5466ZM10.8283 11.5867C13.8833 9.36333 16.715 9.47 16.715 9.47L16.9433 9.695C13.205 10.5867 11.51 12.2567 11.51 12.2567C11.51 12.2567 11.9633 12.035 12.755 11.6967C17.79 9.71667 23.2883 9.86 28.3783 12.3667C28.3783 12.3667 26.68 10.805 23.1716 9.805L23.4816 9.5C23.9666 9.50167 26.5333 9.59167 29.28 11.6C29.28 11.6 32.3533 16.85 32.3533 23.3C32.2516 23.1767 30.4466 26.0767 25.8016 26.1767C25.8016 26.1767 25.015 25.2867 24.455 24.51C27.1716 23.73 28.1883 22.17 28.1883 22.17C27.2966 22.7317 26.4833 23.065 25.8233 23.3983C24.8083 23.845 23.7916 24.065 22.7766 24.29C17.97 25.07 15.2716 23.765 12.7216 22.73L11.85 22.2867C11.85 22.2867 12.865 23.8467 15.4733 24.6267C14.7883 25.4083 14.11 26.2967 14.11 26.2967C9.46663 26.1867 7.77329 23.2867 7.77329 23.2867C7.77329 16.8267 10.8283 11.5867 10.8283 11.5867V11.5867Z" fill="white"/>
<path d="M23.8467 21.285C25.0316 21.285 25.9966 20.285 25.9966 19.0517C25.9966 17.8267 25.0366 16.8267 23.8467 16.8267V16.8317C22.6667 16.8317 21.7 17.8283 21.6967 19.0617C21.6967 20.285 22.6617 21.285 23.8467 21.285Z" fill="white"/>
<path d="M16.15 21.285C17.335 21.285 18.3 20.285 18.3 19.0517C18.3 17.8267 17.3417 16.8267 16.1567 16.8267L16.15 16.8317C14.965 16.8317 14 17.8283 14 19.0617C14 20.285 14.965 21.285 16.15 21.285V21.285Z" fill="white"/>
</g>
<defs>
<clipPath id="clip0">
<rect width="40" height="40" fill="white"/>
</clipPath>
</defs>
</svg>
