<svg width="20" height="20" viewBox="0 0 20 20" fill="none" xmlns="http://www.w3.org/2000/svg">
<path d="M2.71946 18.413C2.71946 18.413 2.7017 18.8601 3.13841 18.8601C3.68171 18.8601 8.17986 18.8542 8.17986 18.8542L8.18726 14.7232C8.18726 14.7232 8.1162 14.0422 8.7772 14.0422H10.869C11.6506 14.0422 11.6025 14.7232 11.6025 14.7232L11.5936 18.8409C11.5936 18.8409 15.8586 18.8409 16.5285 18.8409C17.0829 18.8409 17.0577 18.2842 17.0577 18.2842V10.6684L10.1029 4.48187L2.71946 10.6684C2.71946 10.6684 2.71946 18.413 2.71946 18.413Z" fill="white"/>
<path d="M0 10.0925C0 10.0925 0.626943 11.248 1.99408 10.0925L10.1643 3.1806L17.8246 10.0496C19.4071 11.191 20 10.0496 20 10.0496L10.1643 1.13989L0 10.0925Z" fill="white"/>
<path d="M17.6388 3.16431H15.6684L15.6765 5.55365L17.6388 7.21834V3.16431Z" fill="white"/>
</svg>
